<?xml version="1.0" standalone="no"?>
<!DOCTYPE svg PUBLIC "-//W3C//DTD SVG 20010904//EN"
 "http://www.w3.org/TR/2001/REC-SVG-20010904/DTD/svg10.dtd">
<svg version="1.0" xmlns="http://www.w3.org/2000/svg"
 width="2048.000000pt" height="2048.000000pt" viewBox="0 0 2048.000000 2048.000000"
 preserveAspectRatio="xMidYMid meet">
<metadata>
Created by potrace 1.11, written by Peter Selinger 2001-2013
</metadata>
<g transform="translate(0.000000,2048.000000) scale(0.100000,-0.100000)"
fill="#000000" stroke="none">
<path d="M6869 17106 c-2 -2 -36 -7 -75 -10 -39 -4 -80 -8 -91 -11 -11 -2 -38
-6 -58 -9 -32 -5 -100 -19 -199 -41 -125 -28 -375 -119 -511 -188 -206 -103
-430 -248 -566 -369 -15 -13 -38 -32 -52 -43 -46 -37 -180 -169 -259 -256
-319 -351 -576 -799 -738 -1291 -50 -150 -121 -426 -140 -540 -5 -35 -12 -74
-14 -88 -17 -93 -40 -287 -51 -425 -5 -57 -5 -520 0 -580 22 -272 38 -391 91
-655 94 -470 321 -1007 593 -1405 205 -300 452 -562 721 -764 52 -39 100 -75
107 -81 7 -5 15 -10 18 -10 3 0 27 -15 53 -33 88 -61 258 -152 392 -210 236
-101 507 -171 755 -194 139 -14 525 -5 555 11 3 2 29 7 59 10 61 7 273 54 311
69 8 3 49 15 90 28 203 60 468 177 665 292 71 42 264 170 300 199 129 104 182
153 315 287 85 86 207 213 271 281 165 177 177 189 324 345 73 77 152 161 176
186 24 26 105 111 179 190 176 187 247 262 310 329 29 30 79 83 112 117 l60
62 66 -68 c37 -38 184 -189 327 -336 143 -147 294 -302 335 -345 41 -42 194
-200 340 -350 683 -704 844 -848 1178 -1049 238 -143 552 -256 812 -291 47 -6
96 -13 109 -15 32 -6 254 -18 321 -18 68 0 267 12 296 17 12 2 43 7 70 11 39
5 191 36 287 60 55 13 194 59 205 68 6 5 12 7 12 4 0 -5 23 4 147 59 21 10 40
18 43 18 12 3 158 81 229 123 503 297 943 799 1226 1396 82 173 189 457 231
612 23 83 74 292 78 321 4 22 15 84 25 139 11 55 23 132 26 170 4 39 9 78 11
88 1 9 6 54 9 100 4 45 9 102 11 127 9 117 3 521 -10 638 -3 26 -8 76 -11 112
-10 116 -64 424 -100 566 -131 534 -364 1030 -674 1438 -85 112 -110 141 -216
255 -438 470 -973 767 -1560 865 -214 36 -526 41 -733 12 -67 -10 -109 -16
-132 -21 -300 -57 -567 -160 -840 -324 -325 -195 -559 -395 -955 -816 -88 -93
-190 -201 -227 -240 -36 -38 -88 -92 -114 -120 -25 -27 -102 -108 -169 -180
-156 -165 -202 -214 -350 -370 -66 -70 -165 -175 -221 -233 l-101 -106 -155
160 c-86 87 -191 196 -234 241 -74 76 -499 513 -699 718 -49 51 -180 186 -290
301 -494 515 -602 610 -867 764 -191 110 -458 212 -643 244 -16 3 -53 10 -82
15 -29 6 -71 13 -95 16 -24 3 -61 8 -83 11 -46 7 -530 16 -536 10z m433 -1612
c159 -28 271 -94 419 -248 332 -345 467 -485 796 -822 144 -148 301 -310 350
-360 48 -51 198 -205 333 -344 135 -138 245 -255 245 -260 0 -9 -43 -56 -269
-294 -77 -82 -152 -162 -166 -176 -14 -15 -86 -92 -161 -171 -75 -79 -151
-160 -169 -179 -18 -19 -94 -100 -170 -180 -75 -80 -148 -157 -161 -171 -299
-325 -455 -479 -551 -542 -306 -201 -652 -293 -893 -237 -27 6 -57 13 -65 15
-8 2 -42 13 -75 26 -299 112 -592 406 -781 782 -105 209 -195 472 -228 672
-14 82 -26 165 -31 215 -3 30 -8 75 -11 100 -6 55 -6 366 0 435 14 140 20 180
42 300 14 72 27 141 30 154 3 13 28 93 55 177 77 234 192 454 332 634 80 103
249 264 314 298 12 7 27 18 35 25 44 42 233 121 353 147 99 21 317 23 427 4z
m6843 -49 c68 -12 196 -56 270 -92 277 -139 540 -436 714 -805 40 -86 48 -106
97 -243 68 -192 124 -471 140 -705 5 -74 5 -340 0 -385 -2 -16 -7 -64 -10
-105 -29 -335 -166 -763 -322 -1008 -19 -29 -34 -54 -34 -57 0 -3 -6 -13 -14
-22 -8 -10 -40 -52 -70 -93 -236 -317 -546 -493 -865 -491 -251 2 -390 56
-610 239 -88 73 -604 593 -1191 1202 -40 41 -185 190 -322 332 -137 141 -249
260 -248 265 0 4 47 57 103 117 56 59 120 127 142 151 22 24 99 105 171 181
73 77 151 160 175 185 24 26 101 107 170 180 70 74 148 157 174 184 25 28 104
111 174 185 71 74 155 164 187 199 264 285 521 479 732 552 57 20 81 25 177
38 56 8 200 6 260 -4z"/>
<path d="M2428 8905 c-2 -2 -36 -5 -77 -6 -100 -3 -109 -12 -116 -119 -16
-250 -22 -1160 -11 -1495 2 -66 5 -166 6 -223 3 -158 -42 -143 450 -146 429
-3 460 -5 458 -44 -1 -15 8 -134 17 -222 2 -19 6 -73 10 -120 3 -47 8 -101 10
-120 3 -19 7 -75 11 -125 3 -49 7 -108 10 -130 2 -22 6 -77 9 -123 3 -45 8
-99 10 -120 4 -47 15 -199 20 -277 2 -33 6 -103 9 -155 16 -235 31 -562 41
-865 3 -88 10 -176 15 -196 16 -59 32 -66 165 -74 66 -4 136 -9 155 -11 19 -2
195 -6 390 -9 270 -3 374 -1 435 10 103 17 153 39 160 68 5 20 35 280 50 422
3 33 8 78 10 100 3 22 7 60 9 85 13 137 17 178 21 210 2 19 7 63 10 98 3 34 7
90 10 125 3 34 8 78 10 97 8 69 27 273 40 445 3 39 8 90 10 115 6 65 24 303
30 395 8 141 18 293 20 315 2 14 3 37 4 51 l1 27 428 1 c359 2 429 4 442 17 8
8 15 36 17 67 25 582 24 1776 -2 1839 -9 24 -24 27 -150 33 -60 3 -153 7 -205
10 -89 5 -176 8 -505 20 -182 6 -485 14 -785 21 -336 7 -1636 14 -1642 9z"/>
<path d="M14147 8864 c-1 -1 -40 -4 -87 -7 -155 -10 -235 -38 -244 -86 -3 -14
-8 -89 -12 -166 -3 -77 -7 -156 -9 -175 -19 -203 -28 -2266 -12 -2960 24
-1087 22 -1056 69 -1081 36 -20 42 -21 263 -21 317 -1 471 10 531 38 36 17 49
53 63 169 9 79 7 842 -4 1010 -3 60 -4 107 -2 105 3 -3 22 -48 42 -100 133
-341 349 -749 572 -1080 103 -152 105 -153 289 -154 196 -2 196 -2 272 132
118 209 199 376 294 601 22 53 45 110 53 126 7 17 25 64 40 105 14 41 31 84
36 95 5 11 27 72 49 135 l39 115 -4 -95 c-12 -264 -18 -514 -19 -786 -1 -242
2 -306 13 -327 16 -29 88 -61 162 -72 24 -3 55 -8 69 -10 148 -23 1241 -36
1323 -16 51 12 83 44 92 89 9 47 13 163 30 742 2 85 7 234 10 330 6 205 13
489 21 825 6 278 6 1627 0 1855 -14 501 -18 568 -31 590 -10 17 -61 40 -102
46 -21 3 -41 8 -44 10 -28 17 -720 25 -909 10 -169 -13 -296 -37 -352 -68 -30
-17 -43 -35 -69 -97 -45 -105 -219 -450 -285 -567 -30 -53 -54 -97 -54 -99 0
-2 -22 -40 -50 -85 -27 -45 -50 -83 -50 -85 0 -4 -168 -263 -265 -409 -38 -57
-76 -107 -82 -110 -8 -3 -48 48 -107 137 -102 156 -204 315 -230 362 -9 17
-24 42 -34 57 -77 120 -257 444 -368 663 -48 94 -96 181 -108 193 -42 47 -145
85 -291 108 -34 6 -503 13 -508 8z"/>
<path d="M7288 8795 c-2 -2 -79 -6 -173 -10 -93 -3 -195 -8 -225 -10 -30 -2
-96 -6 -147 -9 -50 -3 -106 -8 -125 -10 -18 -3 -59 -8 -92 -11 -32 -4 -68 -8
-80 -10 -11 -2 -37 -6 -56 -9 -148 -24 -224 -52 -269 -100 -22 -23 -25 -35
-24 -104 1 -79 11 -375 18 -537 3 -49 7 -148 10 -220 3 -71 7 -159 10 -195 2
-36 7 -132 10 -215 3 -82 8 -179 10 -215 3 -36 7 -117 10 -180 12 -268 16
-339 20 -405 3 -38 7 -113 10 -166 3 -53 7 -123 9 -155 3 -32 8 -104 11 -159
4 -55 8 -125 11 -155 4 -58 10 -136 19 -260 3 -41 8 -95 10 -120 2 -25 7 -81
10 -125 3 -44 8 -96 10 -115 2 -19 7 -66 10 -105 3 -38 8 -88 10 -110 3 -22 7
-69 10 -105 3 -36 8 -83 11 -105 3 -22 6 -53 8 -70 3 -16 7 -59 11 -95 3 -36
8 -72 10 -80 2 -8 7 -37 10 -65 3 -27 8 -59 10 -70 2 -11 4 -25 4 -32 1 -7 15
-28 32 -48 49 -55 141 -78 369 -93 154 -9 1502 -9 1660 1 299 18 484 52 523
95 15 17 18 34 34 242 12 161 10 567 -4 581 -14 14 -127 15 -308 3 -196 -12
-665 -6 -750 11 -11 2 -23 4 -27 4 -10 1 5 380 18 455 7 41 9 43 46 39 51 -5
637 -3 693 2 186 17 245 32 263 68 31 63 116 362 143 505 22 117 -17 145 -200
143 -64 0 -125 -3 -136 -5 -11 -2 -67 -7 -125 -11 -58 -5 -121 -9 -140 -11
-92 -7 -326 -17 -419 -18 l-104 -1 1 205 c1 113 3 214 6 225 2 11 5 24 5 28 1
8 511 2 635 -7 27 -2 97 -7 155 -11 58 -4 114 -9 125 -11 10 -2 50 -4 88 -5
57 -2 71 1 83 17 28 39 78 249 100 423 4 30 8 61 10 70 3 19 12 104 20 186 4
33 8 76 10 95 3 19 7 69 10 110 3 41 7 104 10 140 16 207 25 414 30 670 4 210
4 210 -18 225 -20 13 -146 15 -970 13 -521 0 -948 -2 -949 -3z"/>
<path d="M11117 8794 c-1 -1 -78 -4 -172 -7 -191 -7 -265 -19 -301 -50 -18
-17 -40 -69 -85 -212 -59 -185 -127 -404 -154 -495 -7 -25 -25 -83 -40 -130
-15 -47 -35 -114 -45 -150 -10 -36 -62 -213 -114 -395 -53 -181 -98 -339 -100
-350 -3 -11 -17 -63 -31 -115 -15 -52 -28 -102 -30 -110 -2 -8 -16 -58 -30
-110 -31 -112 -166 -628 -170 -650 -2 -8 -10 -40 -19 -71 -9 -31 -18 -65 -20
-75 -2 -11 -34 -134 -70 -274 -79 -305 -58 -225 -161 -638 -47 -188 -87 -353
-89 -365 -2 -12 -11 -49 -20 -82 -9 -33 -17 -76 -18 -95 -3 -34 -1 -36 47 -52
86 -28 297 -37 860 -38 518 -1 641 7 717 46 48 25 61 63 98 311 7 43 14 85 15
93 2 8 4 25 4 38 2 37 14 25 48 -46 73 -151 118 -175 236 -122 87 39 175 91
242 143 l50 40 7 -39 c3 -22 9 -82 12 -134 4 -52 9 -106 11 -120 2 -14 7 -54
10 -90 8 -93 9 -97 29 -119 23 -25 47 -29 296 -46 364 -25 1211 -40 1264 -22
28 10 28 11 23 61 -3 28 -8 62 -11 76 -3 14 -13 61 -21 105 -8 44 -20 103 -26
131 -5 28 -12 64 -15 80 -11 66 -60 327 -71 374 -3 14 -6 32 -7 40 -3 20 -15
85 -27 140 -5 25 -11 59 -14 75 -2 17 -21 111 -41 210 -19 99 -38 191 -40 205
-2 14 -9 48 -15 76 -5 28 -12 61 -14 75 -3 13 -21 105 -40 204 -20 99 -39 190
-41 203 -3 13 -18 92 -35 175 -17 84 -33 163 -35 177 -3 14 -17 79 -31 145
-14 66 -27 129 -29 140 -2 11 -7 35 -10 54 -3 18 -7 41 -10 50 -4 19 -43 204
-50 241 -9 45 -64 304 -74 345 -12 49 -79 365 -86 398 -2 14 -18 85 -35 158
-17 74 -33 147 -36 164 -18 102 -76 331 -86 337 -83 57 -216 73 -677 84 -228
5 -720 11 -723 8z m413 -2068 c0 -2 14 -55 30 -117 34 -127 32 -118 55 -214 8
-38 20 -83 25 -100 5 -16 20 -88 35 -160 14 -71 35 -168 45 -215 10 -47 21
-98 24 -115 7 -40 15 -81 27 -135 6 -25 13 -56 15 -70 2 -14 6 -36 9 -50 5
-22 1 -20 -27 15 -92 112 -146 149 -208 142 -46 -5 -134 -53 -259 -142 -51
-36 -95 -64 -98 -61 -4 4 37 219 57 296 5 19 11 46 14 60 2 14 16 73 30 133
14 59 28 118 30 130 9 41 65 241 91 327 15 47 28 90 29 95 2 6 6 17 9 25 3 8
16 48 28 88 13 39 27 72 31 72 4 0 8 -2 8 -4z"/>
</g>
</svg>
